:SAMPLES-PER-SECOND 30
:FULLY-SPECIFIED
:DEGREES
396
root  -12.1667 37.9597 -12.0611 177.17 25.4751 -178.038
RightUpLeg  -16.2418 -11.4564 11.3176
RightLeg  24.5352 -12.6655 -4.05069
RightFoot  -7.59579 0.39032 -13.419
RightToes  -8.73116e-010 0 -3.6325e-017
Spine  8.75601 -4.02789 10.4855
Spine1  5.08444 -3.53674 3.87677
HEad  -30.4328 -24.6397 5.85019
LeftShoulder1  -0.22605 4.10539 -31.4562
LeftArm  8.449 6.75468 -50.2205
LeftForeArm  21.0641 -22.7151 -4.00336
LeftHand  -0.0734931 0.321887 1.66038
RightShoulder  -0.609621 -5.317 26.8944
RightArm  9.85347 -4.53769 46.1401
RightForeArm  8.9116 8.52236 5.8238
RightHand  -0.42782 2.48812 -6.50628
LeftUpLeg  1.29616 12.114 5.46387
LeftLeg  54.509 -14.5082 -20.305
LeftFoot  5.03992 2.86652 -20.2826
LeftToes  -5.63919e-011 3.32596e-011 1.92487e-011
397
root  -12.0554 37.9638 -12.8783 177.057 27.8751 -177.188
RightUpLeg  -14.3854 -9.56559 11.4643
RightLeg  25.1689 -12.4425 -3.86157
RightFoot  -8.88126 0.215668 -12.7783
RightToes  -8.73116e-010 0 -3.6325e-017
Spine  9.28256 -4.18474 11.9475
Spine1  5.60658 -3.2136 3.38749
HEad  -30.9111 -27.2137 6.2498
LeftShoulder1  -0.261324 4.19723 -31.5853
LeftArm  5.63768 6.75671 -48.6226
LeftForeArm  23.4608 -25.0982 -4.09988
LeftHand  -0.0603738 0.264487 1.35926
RightShoulder  -0.593306 -5.25878 27.0669
RightArm  11.2747 -4.39792 46.2113
RightForeArm  6.52453 11.3926 5.81893
RightHand  -0.429246 2.3101 -6.67137
LeftUpLeg  -3.12566 10.8884 6.40714
LeftLeg  60.6937 -11.6721 -20.8779
LeftFoot  6.93263 3.24436 -20.1787
LeftToes  -5.63919e-011 3.32596e-011 1.92487e-011
398
root  -11.8651 38.1784 -13.7683 176.672 31.3464 -177.832
RightUpLeg  -12.0999 -7.47756 10.5917
RightLeg  24.37 -11.1967 -3.33185
RightFoot  -9.52439 0.132048 -12.3101
RightToes  -8.73116e-010 0 -3.6325e-017
Spine  9.34476 -3.98595 11.4316
Spine1  5.7169 -2.89542 2.94317
HEad  -30.2996 -29.036 5.81358
LeftShoulder1  -0.332298 4.39314 -31.2105
LeftArm  2.52652 7.53519 -46.9636
LeftForeArm  22.443 -26.3344 -4.45431
LeftHand  -0.0964853 0.533663 2.24315
RightShoulder  -0.571195 -5.1963 26.9861
RightArm  15.3346 -3.96795 46.6402
RightForeArm  4.28983 15.1109 5.71863
RightHand  -0.474434 3.18582 -6.65444
LeftUpLeg  -7.11119 10.0615 6.10977
LeftLeg  63.4139 -8.57798 -17.5003
LeftFoot  4.1038 2.10428 -15.6689
LeftToes  -5.63919e-011 3.32596e-011 1.92487e-011
399
root  -11.6588 38.4116 -14.6809 176.252 35.443 -178.614
RightUpLeg  -9.69845 -5.78363 9.5985
RightLeg  23.1247 -8.8797 -2.40363
RightFoot  -10.0378 0.0683339 -11.8915
RightToes  -8.73116e-010 0 -3.6325e-017
Spine  9.25048 -3.73027 11.0318
Spine1  5.78669 -2.55872 2.31996
HEad  -29.5103 -30.55 4.88557
LeftShoulder1  -0.368383 4.48541 -31.3752
LeftArm  -0.404051 8.36191 -44.7157
LeftForeArm  20.2446 -26.2521 -4.55492
LeftHand  -0.123739 0.377992 2.8587
RightShoulder  -0.556301 -5.17003 26.615
RightArm  19.1381 -3.43613 47.5609
RightForeArm  4.04129 18.925 5.06947
RightHand  -0.468613 2.89345 -6.78669
LeftUpLeg  -10.3552 8.91791 5.74837
LeftLeg  63.0958 -5.34106 -10.788
LeftFoot  2.99638 1.42992 -11.4695
LeftToes  -5.63919e-011 3.32596e-011 1.92487e-011
400
root  -11.4248 38.6422 -15.5655 175.943 39.7932 -179.554
RightUpLeg  -7.47253 -5.0001 8.4669
RightLeg  21.4429 -5.43281 -1.18701
RightFoot  -10.4918 0.0152625 -11.5241
RightToes  -8.73116e-010 0 -3.6325e-017
Spine  9.1118 -3.50466 11.0164
Spine1  5.55357 -2.07427 0.681813
HEad  -28.8352 -30.9056 4.31404
LeftShoulder1  -0.314113 4.36178 -30.4843
LeftArm  -3.10916 9.71988 -42.9277
LeftForeArm  17.5606 -25.6267 -4.55786
LeftHand  -0.119244 1.4567 3.33025
RightShoulder  -0.589502 -5.2646 26.7382
RightArm  21.5296 -3.25023 48.0303
RightForeArm  4.52287 23.4146 4.78702
RightHand  -0.486169 3.3386 -6.70693
LeftUpLeg  -13.182 7.56006 5.59701
LeftLeg  60.8087 -2.43555 -4.18695
LeftFoot  1.13123 0.798349 -7.34314
LeftToes  -5.63919e-011 3.32596e-011 1.92487e-011
401
root  -11.1874 38.8564 -16.4199 175.697 44.4462 179.306
RightUpLeg  -5.78042 -4.77875 7.21613
RightLeg  19.9839 -1.18704 -0.0628251
RightFoot  -10.8786 -0.0281525 -11.1249
RightToes  -8.73116e-010 0 -3.6325e-017
Spine  9.0199 -3.05485 10.2208
Spine1  4.9994 -1.70593 0.163234
HEad  -28.6698 -30.5664 3.65977
LeftShoulder1  -0.309492 4.35347 -30.2839
LeftArm  -4.50719 10.8248 -41.0061
LeftForeArm  15.1963 -23.9271 -4.34009
LeftHand  -0.15264 1.65576 4.54352
RightShoulder  -0.584704 -5.26501 26.4592
RightArm  20.1673 -3.40015 48.305
RightForeArm  7.58168 27.66 5.55362
RightHand  -0.469551 3.55204 -6.3432
LeftUpLeg  -15.363 5.78528 5.61995
LeftLeg  56.4675 -0.258836 0.0618218
LeftFoot  -0.60871 0.322679 -3.43071
LeftToes  -5.63919e-011 3.32596e-011 1.92487e-011
402
root  -10.9015 39.0286 -17.2477 175.503 48.7919 178.493
RightUpLeg  -4.22738 -4.62883 6.18095
RightLeg  18.937 3.27287 0.831567
RightFoot  -11.1391 -0.0558788 -10.7425
RightToes  -8.73116e-010 0 -3.6325e-017
Spine  8.57424 -2.7399 9.53301
Spine1  5.24474 -1.51775 -0.145016
HEad  -28.9107 -29.663 3.49864
LeftShoulder1  -0.302358 4.33873 -30.0709
LeftArm  -5.90831 11.503 -39.4008
LeftForeArm  14.8995 -21.3355 -4.13575
LeftHand  -0.128892 1.74293 3.88608
RightShoulder  -0.540656 -5.13851 26.2523
RightArm  19.1901 -3.29929 48.4551
RightForeArm  8.89139 31.3967 6.39729
RightHand  -0.482731 3.50858 -6.5473
LeftUpLeg  -16.4349 3.73045 6.49413
LeftLeg  50.1108 1.3439 2.17341
LeftFoot  -2.27686 0.218298 -2.60649
LeftToes  -5.63919e-011 3.32596e-011 1.92487e-011
403
root  -10.6055 39.1482 -18.0831 175.76 53.0074 178.128
RightUpLeg  -3.06176 -4.46872 5.41592
RightLeg  18.0524 7.32504 1.46349
RightFoot  -11.358 -0.0780703 -10.3121
RightToes  -8.73116e-010 0 -3.6325e-017
Spine  8.13429 -2.43107 8.99538
Spine1  5.32252 -1.45621 0.0489323
HEad  -29.3526 -28.2242 3.21084
LeftShoulder1  -0.308261 4.35241 -30.1826
LeftArm  -6.81255 11.9788 -37.8631
LeftForeArm  15.1347 -18.1691 -4.43711
LeftHand  -0.109259 2.35431 3.75416
RightShoulder  -0.461342 -4.92746 25.5209
RightArm  17.7502 -3.58643 48.8488
RightForeArm  9.99438 34.3932 7.11577
RightHand  -0.516587 4.25383 -6.48884
LeftUpLeg  -16.8046 1.57989 8.03379
LeftLeg  42.2414 1.39602 1.77618
LeftFoot  -3.31726 0.216802 -2.80423
LeftToes  -5.63919e-011 3.32596e-011 1.92487e-011
404
root  -10.2691 39.2323 -18.9187 176.074 56.9225 177.944
RightUpLeg  -1.95384 -4.23004 4.71679
RightLeg  17.3724 10.9208 1.81102
RightFoot  -11.6675 -0.107908 -10.2973
RightToes  -8.73116e-010 0 -3.6325e-017
Spine  7.90778 -2.30831 8.55543
Spine1  5.19316 -1.45617 -0.185454
HEad  -29.7605 -26.6901 3.48361
LeftShoulder1  -0.313617 4.37075 -29.9696
LeftArm  -7.67348 12.5776 -36.4838
LeftForeArm  16.885 -14.8701 -4.98499
LeftHand  -0.069709 2.90653 2.64309
RightShoulder  -0.56167 -5.20542 26.2542
RightArm  17.3442 -3.15325 48.1785
RightForeArm  10.8803 36.0749 7.52903
RightHand  -0.513604 4.01808 -6.60255
LeftUpLeg  -16.3562 -1.23354 9.77903
LeftLeg  33.1741 -0.659299 -0.0911826
LeftFoot  -3.83083 0.207643 -2.81242
LeftToes  -5.63919e-011 3.32596e-011 1.92487e-011
405
root  -9.89362 39.2682 -19.7449 176.885 60.5865 178.08
RightUpLeg  -1.30236 -3.86962 4.09923
RightLeg  17.0961 14.3078 2.17929
RightFoot  -12.2095 -0.159133 -10.1138
RightToes  -8.73116e-010 0 -3.6325e-017
Spine  7.2402 -2.04619 7.30659
Spine1  5.47591 -1.72216 1.13871
HEad  -30.2358 -25.2572 3.52479
LeftShoulder1  -0.415588 4.63276 -30.6785
LeftArm  -7.84139 13.0439 -35.0976
LeftForeArm  18.1563 -12.1324 -5.59552
LeftHand  -0.0454616 2.9998 1.44679
RightShoulder  -0.517403 -5.08703 25.8717
RightArm  16.3662 -2.93481 47.9887
RightForeArm  10.887 36.3941 7.62078
RightHand  -0.559493 4.81827 -6.65073
LeftUpLeg  -15.6902 -5.59705 11.8146
LeftLeg  23.7356 -4.04487 -1.66238
LeftFoot  -3.69993 0.237922 -3.23066
LeftToes  -5.63919e-011 3.32596e-011 1.92487e-011
